<svg xmlns="http://www.w3.org/2000/svg" version="1.1" xmlns:xlink="http://www.w3.org/1999/xlink" xmlns:svgjs="http://svgjs.dev/svgjs" width="1000" height="416" viewBox="0 0 1000 416"><g transform="matrix(1,0,0,1,-0.6060580570369325,-0.4326529423370573)"><svg viewBox="0 0 396 165" data-background-color="#051726" preserveAspectRatio="xMidYMid meet" height="416" width="1000" xmlns="http://www.w3.org/2000/svg" xmlns:xlink="http://www.w3.org/1999/xlink"><g id="tight-bounds" transform="matrix(1,0,0,1,0.23999899058662777,0.1716051333788755)"><svg viewBox="0 0 395.52 164.65678973324225" height="164.65678973324225" width="395.52"><g><svg viewBox="0 0 395.52 164.65678973324225" height="164.65678973324225" width="395.52"><g transform="matrix(1,0,0,1,0,99.03891025986863)"><svg viewBox="0 0 395.52 65.61787947337363" height="65.61787947337363" width="395.52"><g id="textblocktransform"><svg viewBox="0 0 395.52 65.61787947337363" height="65.61787947337363" width="395.52" id="textblock"><g><svg viewBox="0 0 395.52 35.391148730350665" height="35.391148730350665" width="395.52"><g transform="matrix(1,0,0,1,0,0)"><svg width="395.52" viewBox="3.5 -36 413.4700012207031 37" height="35.391148730350665" data-palette-color="#ffffff"><path d="M3.5-35L21.5-35Q25.25-35 28.23-34.18 31.2-33.35 33.25-31.78 35.3-30.2 36.4-27.93 37.5-25.65 37.5-22.75L37.5-22.75Q37.5-19.85 36.4-17.57 35.3-15.3 33.25-13.73 31.2-12.15 28.23-11.33 25.25-10.5 21.5-10.5L21.5-10.5 10.75-10.5 10.75 0 3.5 0 3.5-35ZM21.5-31.25L10.75-31.25 10.75-14.25 21.5-14.25Q25.45-14.25 27.63-16.32 29.8-18.4 29.8-22.75L29.8-22.75Q29.8-27.1 27.63-29.18 25.45-31.25 21.5-31.25L21.5-31.25ZM43-35L61-35Q64.75-35 67.72-34.18 70.7-33.35 72.75-31.78 74.8-30.2 75.9-27.93 77-25.65 77-22.75L77-22.75Q77-18.75 75-16 73-13.25 69.25-11.8L69.25-11.8 77.5 0 69.25 0 61.9-10.5 61-10.5 50.25-10.5 50.25 0 43 0 43-35ZM61-31.25L50.25-31.25 50.25-14.25 61-14.25Q64.95-14.25 67.1-16.32 69.25-18.4 69.25-22.75L69.25-22.75Q69.25-27.1 67.1-29.18 64.95-31.25 61-31.25L61-31.25ZM90.25-35L90.25 0 83 0 83-35 90.25-35ZM117.24-2.75L117.24-2.75Q120.64-2.75 123.77-3.93 126.89-5.1 129.74-7.75L129.74-7.75 132.24-4.75Q129.39-2.1 125.34-0.55 121.29 1 116.74 1L116.74 1Q112.04 1 108.27-0.2 104.49-1.4 101.82-3.75 99.14-6.1 97.69-9.55 96.24-13 96.24-17.5L96.24-17.5Q96.24-22 97.67-25.45 99.09-28.9 101.72-31.25 104.34-33.6 108.04-34.8 111.74-36 116.24-36L116.24-36Q120.79-36 124.84-34.45 128.89-32.9 131.74-30.25L131.74-30.25 129.24-27.25Q126.39-29.9 123.27-31.08 120.14-32.25 116.74-32.25L116.74-32.25Q114.04-32.25 111.69-31.38 109.34-30.5 107.64-28.7 105.94-26.9 104.97-24.13 103.99-21.35 103.99-17.5L103.99-17.5Q103.99-13.65 104.97-10.88 105.94-8.1 107.72-6.3 109.49-4.5 111.92-3.63 114.34-2.75 117.24-2.75ZM167.24-31.25L143.99-31.25 143.99-19.75 162.24-19.75 162.24-16 143.99-16 143.99-3.75 167.24-3.75 167.24 0 136.74 0 136.74-35 167.24-35 167.24-31.25ZM222.24-9.25L222.24-9.25Q222.24-7.1 221.34-5.23 220.44-3.35 218.41-1.98 216.39-0.6 213.16 0.2 209.94 1 205.24 1L205.24 1Q202.59 1 200.06 0.6 197.54 0.2 195.26-0.55 192.99-1.3 191.06-2.38 189.14-3.45 187.74-4.75L187.74-4.75 190.24-7.75Q193.09-5.3 196.89-4.03 200.69-2.75 205.24-2.75L205.24-2.75Q210.29-2.75 212.39-4.15 214.49-5.55 214.49-8L214.49-8Q214.49-9.9 212.84-11.2 211.19-12.5 207.24-13.75L207.24-13.75 197.74-16.75Q193.04-18.25 190.64-20.58 188.24-22.9 188.24-26.5L188.24-26.5Q188.24-28.35 189.11-30.08 189.99-31.8 191.84-33.13 193.69-34.45 196.56-35.23 199.44-36 203.49-36L203.49-36Q205.94-36 208.36-35.6 210.79-35.2 213.01-34.45 215.24-33.7 217.16-32.63 219.09-31.55 220.49-30.25L220.49-30.25 217.99-27.25Q215.14-29.7 211.59-30.98 208.04-32.25 203.49-32.25L203.49-32.25Q199.74-32.25 197.86-30.95 195.99-29.65 195.99-27.75L195.99-27.75Q195.99-26.7 196.34-25.93 196.69-25.15 197.51-24.48 198.34-23.8 199.69-23.23 201.04-22.65 203.04-22L203.04-22 212.49-19Q217.04-17.55 219.64-15.2 222.24-12.85 222.24-9.25ZM243.98-30.75L236.48-12.25 251.98-12.25 244.48-30.75 243.98-30.75ZM238.48-35L249.98-35 264.23 0 257.03 0 253.73-8.5 234.73-8.5 231.43 0 224.23 0 238.48-35ZM268.68-35L281.23-4.25 281.73-4.25 294.28-35 301.73-35 287.48 0 275.48 0 261.23-35 268.68-35ZM318.48-30.75L310.98-12.25 326.48-12.25 318.98-30.75 318.48-30.75ZM312.98-35L324.48-35 338.73 0 331.53 0 328.23-8.5 309.23-8.5 305.93 0 298.73 0 312.98-35ZM371.48-35L378.73-35 378.73 0 369.23 0 350.48-28.5 349.98-28.5 349.98 0 342.73 0 342.73-35 352.23-35 370.98-6.5 371.48-6.5 371.48-35ZM416.97-35L416.97-31.25 403.47-31.25 403.47 0 396.22 0 396.22-31.25 382.72-31.25 382.72-35 416.97-35Z" opacity="1" transform="matrix(1,0,0,1,0,0)" fill="#ffffff" class="undefined-text-0" data-fill-palette-color="primary" id="text-0"></path></svg></g></svg></g><g transform="matrix(1,0,0,1,0,43.746149558016924)"><svg viewBox="0 0 395.52 21.87172991535671" height="21.87172991535671" width="395.52"><g transform="matrix(1,0,0,1,0,0)"><svg width="395.52" viewBox="-2.25 -38.04999923706055 956.6199951171875 52.900001525878906" height="21.87172991535671" data-palette-color="#81ffd9"><path d="M22.5-15.3L22.5-15.3Q26.45-12.4 26.45-8.45 26.45-4.5 23.35-2.1 20.25 0.3 15.55 0.3L15.55 0.3Q12.5 0.3 10.48-1.23 8.45-2.75 8.45-5 8.45-7.25 9.95-8.58 11.45-9.9 13.7-10.2L13.7-10.2Q12.65-8.7 12.65-7.33 12.65-5.95 13.6-5.1L13.6-5.1Q14.55-4.25 16-4.25 17.45-4.25 18.4-5.33 19.35-6.4 19.35-7.8L19.35-7.8Q19.35-10.1 17.2-11.9L17.2-11.9Q15.9-12.95 14.4-13.88 12.9-14.8 12.8-14.85L12.8-14.85Q12.6-15 12.4-15.1L12.4-15.1Q11.5-14.05 9.8-12.23 8.1-10.4 7.1-9.3L7.1-9.3Q4.3-6.25 3.95-4.2L3.95-4.2Q3.85-3.8 3.85-2.68 3.85-1.55 4.53-0.35 5.2 0.85 6.15 1.45 7.1 2.05 8.03 2.43 8.95 2.8 9.63 2.95 10.3 3.1 10.3 3.15L10.3 3.15Q10.3 3.5 9.2 3.95L9.2 3.95Q7.15 4.7 4.93 4.7 2.7 4.7 0.6 3.1L0.6 3.1Q-2.25 0.9-2.25-2.75L-2.25-2.75Q-2.25-5-1.1-7.2L-1.1-7.2Q0.95-11.1 8.5-17.9L8.5-17.9Q6.65-19.75 6.65-21.85 6.65-23.95 8.22-25.4 9.8-26.85 11.95-26.85L11.95-26.85Q13.9-26.85 15.35-25.3L15.35-25.3Q16.3-24.25 16.3-22.65 16.3-21.05 15.25-19.05L15.25-19.05Q20.6-16.65 22.5-15.3ZM11.65-20.95L11.65-20.95Q12.85-22.2 12.85-22.75L12.85-22.75Q12.85-24 11.75-24.1L11.75-24.1Q10.5-24.1 10.5-22.7L10.5-22.7Q10.5-21.85 11.65-20.95ZM101.09-34.8L101.09-34.8Q101.09-34.5 99.74-24.05L99.74-24.05 107.09-24.05 107.09-20.2 99.24-20.2 99.09-18.95Q104.94-14.05 104.94-8.25L104.94-8.25Q104.94-3.7 102.61-1.7 100.29 0.3 97.04 0.3 93.79 0.3 92.29-1.43 90.79-3.15 90.79-5.6L90.79-5.6Q90.79-6.15 90.89-6.8L90.89-6.8 92.44-20.1 92.24-20.2 88.19-20.2Q88.14-20.7 88.14-21.83 88.14-22.95 88.59-24.05L88.59-24.05 92.89-24.05 94.49-37.65Q95.54-38.05 97.29-38.05L97.29-38.05Q101.09-38.05 101.09-34.8ZM101.59-8.3L101.59-8.3Q101.59-11.75 98.59-15.1L98.59-15.1Q97.69-7.65 97.69-6.5L97.69-6.5Q97.69-4.25 99.14-4.25L99.14-4.25Q100.19-4.25 100.89-5.23 101.59-6.2 101.59-8.3ZM182.48-24.05L182.48-24.05Q187.08-24.05 190.15-21.1 193.23-18.15 193.23-13.9L193.23-13.9Q193.23-7.45 189.45-3.58 185.68 0.3 180.33 0.3 174.98 0.3 171.85-2.75 168.73-5.8 168.73-10.3L168.73-10.3Q168.73-16.6 172.58-20.3L172.58-20.3Q176.48-24.05 182.48-24.05ZM181.5-20Q179.13-20 177.53-17.3 175.93-14.6 175.78-10.5L175.78-10.5Q175.78-7.6 176.95-5.7 178.13-3.8 180.53-3.8 182.93-3.8 184.55-6.45 186.18-9.1 186.18-12.5 186.18-15.9 185.03-17.9L185.03-17.9Q183.88-20 181.5-20ZM273.42-16.95L273.42-16.95Q273.42-20.2 270.52-20.2L270.52-20.2Q268.37-20.2 266.67-17.75L266.67-17.75Q264.87-15.1 264.87-11.55 264.87-8 266.44-6.08 268.02-4.15 270.77-4.15L270.77-4.15Q274.07-4.15 277.74-6.85 281.42-9.55 283.67-13.55L283.67-13.55Q284.67-12.8 285.62-10.8L285.62-10.8Q284.17-7.9 280.22-4.3L280.22-4.3Q278.17-2.4 275.12-1.1L275.12-1.1Q271.82 0.3 268.52 0.3L268.52 0.3Q264.07 0.3 260.99-2.75 257.92-5.8 257.92-10.7L257.92-10.7Q257.92-16.65 261.92-20.35 265.92-24.05 270.87-24.05L270.87-24.05Q274.72-24.05 276.97-22.45 279.22-20.85 279.22-18.25L279.22-18.25Q279.22-16.55 278.02-15.3L278.02-15.3Q275.82-13.1 272.67-13.1L272.67-13.1Q273.42-15.6 273.42-16.95ZM366.25-18L366.25-18Q366.25-12.8 360.05-10.05L360.05-10.05Q360.2-9.15 360.5-7.9L360.5-7.9Q361.4-4.2 363.5-4.1L363.5-4.1Q363.65-4.1 363.8-4.1L363.8-4.1Q367.8-4.1 369.75-11.15L369.75-11.15Q370.8-10.2 371.75-8.3L371.75-8.3Q371.05-5.6 369.78-3.75 368.5-1.9 367-1.1L367-1.1Q364.35 0.3 362 0.3L362 0.3Q356.5 0.3 354.3-5.85L354.3-5.85Q353.45-8.3 353.15-10.85L353.15-10.85Q356-11.55 357.65-13.18 359.3-14.8 359.3-16.65L359.3-16.65Q359.3-19.85 356.1-19.85L356.1-19.85Q354.35-19.85 353.1-18.53 351.85-17.2 351.45-15.35L351.45-15.35Q351.15-12.8 350.48-7.33 349.8-1.85 349.6 0L349.6 0 342.95 0Q346.55-30.65 347.3-37.65L347.3-37.65Q348.35-38.05 350.15-38.05L350.15-38.05Q354.05-38.05 354.05-35.75L354.05-35.75 354.05-35.45Q353.05-26.4 352.2-21.6L352.2-21.6Q354.95-24.15 359.1-24.15L359.1-24.15Q362.2-24.15 364.23-22.55 366.25-20.95 366.25-18ZM524.38-7.95L524.38-7.95Q524.38-4.35 527.43-4.35L527.43-4.35Q527.53-4.35 527.58-4.35L527.58-4.35Q528.98-4.35 530.08-5.85 531.18-7.35 531.73-9.6L531.73-9.6Q532.93-14.2 532.93-17.95L532.93-17.95 532.48-17.95Q530.38-17.95 529.23-18.9L529.23-18.9Q528.03-20 528.03-21.55 528.03-23.1 528.98-24.05L528.98-24.05Q530.13-25.1 531.83-25.1L531.83-25.1Q535.53-25.1 536.83-21.3L536.83-21.3Q540.33-22.15 544.23-23.65L544.23-23.65 544.23-20.8Q540.53-19.4 537.33-18.65L537.33-18.65Q537.38-18.25 537.38-17.5L537.38-17.5Q537.18-7.15 532.53-2.5L532.53-2.5Q529.78 0.25 525.41 0.25 521.03 0.25 518.88-3.45L518.88-3.45Q516.43 0.3 511.38 0.3L511.38 0.3Q508.38 0.3 506.46-1.83 504.53-3.95 504.53-6.85L504.53-6.85Q504.53-7.35 504.58-8.05L504.58-8.05Q505.63-16.75 506.33-23.45L506.33-23.45Q508.13-24.05 509.48-24.05L509.48-24.05Q513.03-24.05 513.03-21.6L513.03-21.6Q513.03-20.65 512.28-15.05L512.28-15.05Q511.33-8 511.33-7.13 511.33-6.25 512.01-5.4 512.68-4.55 513.96-4.55 515.23-4.55 516.23-5.7 517.23-6.85 517.68-8.5L517.68-8.5 519.43-23.45Q521.03-24.05 522.83-24.05L522.83-24.05Q526.08-24.05 526.08-21.6L526.08-21.6Q526.08-20.7 525.38-15.75L525.38-15.75Q524.38-8.75 524.38-7.95ZM530.88-21.55L530.88-21.55Q530.88-20.7 532.33-20.7L532.33-20.7Q532.48-20.7 532.63-20.7L532.63-20.7Q532.28-22.05 531.58-22.05 530.88-22.05 530.88-21.55ZM606.32-36.83Q607.47-38 609.12-38 610.77-38 611.94-36.83 613.12-35.65 613.12-34 613.12-32.35 611.94-31.2 610.77-30.05 609.12-30.05 607.47-30.05 606.32-31.2 605.17-32.35 605.17-34 605.17-35.65 606.32-36.83ZM604.27-22.15Q604.77-23.05 606.17-23.53 607.57-24 608.94-24 610.32-24 611.37-23.65L611.37-23.65Q609.42-8.6 609.42-8.45L609.42-8.45Q609.17-7.45 609.17-6.78 609.17-6.1 609.27-5.6L609.27-5.6Q609.47-4.3 611.09-4.3 612.72-4.3 614.09-6.43 615.47-8.55 616.17-11.25L616.17-11.25Q616.52-11.05 617.27-10.05 618.02-9.05 618.17-8.55L618.17-8.55Q617.17-4.55 614.77-2.1L614.77-2.1Q612.37 0.35 609.02 0.35 605.67 0.35 604.04-1.3 602.42-2.95 602.42-5.55L602.42-5.55Q602.42-6.1 602.47-6.7L602.47-6.7 604.27-22.15ZM697.31-15.3L697.31-15.3Q701.26-12.4 701.26-8.45 701.26-4.5 698.16-2.1 695.06 0.3 690.36 0.3L690.36 0.3Q687.31 0.3 685.28-1.23 683.26-2.75 683.26-5 683.26-7.25 684.76-8.58 686.26-9.9 688.51-10.2L688.51-10.2Q687.46-8.7 687.46-7.33 687.46-5.95 688.41-5.1L688.41-5.1Q689.36-4.25 690.81-4.25 692.26-4.25 693.21-5.33 694.16-6.4 694.16-7.8L694.16-7.8Q694.16-10.1 692.01-11.9L692.01-11.9Q690.71-12.95 689.21-13.88 687.71-14.8 687.61-14.85L687.61-14.85Q687.41-15 687.21-15.1L687.21-15.1Q686.31-14.05 684.61-12.23 682.91-10.4 681.91-9.3L681.91-9.3Q679.11-6.25 678.76-4.2L678.76-4.2Q678.66-3.8 678.66-2.68 678.66-1.55 679.33-0.35 680.01 0.85 680.96 1.45 681.91 2.05 682.83 2.43 683.76 2.8 684.43 2.95 685.11 3.1 685.11 3.15L685.11 3.15Q685.11 3.5 684.01 3.95L684.01 3.95Q681.96 4.7 679.73 4.7 677.51 4.7 675.41 3.1L675.41 3.1Q672.56 0.9 672.56-2.75L672.56-2.75Q672.56-5 673.71-7.2L673.71-7.2Q675.76-11.1 683.31-17.9L683.31-17.9Q681.46-19.75 681.46-21.85 681.46-23.95 683.03-25.4 684.61-26.85 686.76-26.85L686.76-26.85Q688.71-26.85 690.16-25.3L690.16-25.3Q691.11-24.25 691.11-22.65 691.11-21.05 690.06-19.05L690.06-19.05Q695.41-16.65 697.31-15.3ZM686.46-20.95L686.46-20.95Q687.66-22.2 687.66-22.75L687.66-22.75Q687.66-24 686.56-24.1L686.56-24.1Q685.31-24.1 685.31-22.7L685.31-22.7Q685.31-21.85 686.46-20.95ZM773.9-11.2Q777-11.85 778.52-13.7 780.05-15.55 780.05-17.28 780.05-19 779.12-19.63 778.2-20.25 777.1-20.25L777.1-20.25Q774.75-20.25 772.97-17.63 771.2-15 771.2-11.38 771.2-7.75 772.92-5.98 774.65-4.2 777.2-4.2L777.2-4.2Q780.95-4.2 784.4-6.8 787.85-9.4 790-13.6L790-13.6Q791.1-12.55 792-11L792-11Q790.35-7.25 786.15-3.65L786.15-3.65Q784.05-1.9 781.17-0.8 778.3 0.3 775.25 0.3L775.25 0.3Q770.25 0.3 767.35-2.75L767.35-2.75Q764.25-6.05 764.25-11.2 764.25-16.35 768.12-20.2 772-24.05 777.4-24.05L777.4-24.05Q781.25-24.05 783.65-22.38 786.05-20.7 786.1-17.85L786.1-17.85Q786.1-14 783.02-11.6 779.95-9.2 774.6-8.25L774.6-8.25 773.9-11.2ZM857.01 0.35Q853.93 0.35 852.18-1.38 850.43-3.1 850.43-6.1L850.43-6.1Q850.43-6.9 853.13-29.85L853.13-29.85Q853.83-35.75 856.88-37.3L856.88-37.3Q858.28-38.05 860.23-38.05L860.23-38.05Q866.83-38.05 866.83-31.95L866.83-31.95Q866.83-31.45 866.78-30.9L866.78-30.9Q866.28-24.2 858.38-17.25L858.38-17.25Q858.13-14.8 857.83-12.5L857.83-12.5Q857.23-7.35 857.23-6.8L857.23-6.8Q857.23-4.2 859.48-4.2L859.48-4.2Q861.93-4.2 864.06-7.03 866.18-9.85 867.33-14.25L867.33-14.25Q867.78-14.1 868.58-13.43 869.38-12.75 869.68-12.25L869.68-12.25Q868.88-8.1 866.08-4.3L866.08-4.3Q864.68-2.35 862.53-1.1L862.53-1.1Q860.08 0.35 857.01 0.35ZM859.08-23.75L858.93-22.25Q863.53-27.3 863.53-31.3L863.53-31.3Q863.53-33.7 861.73-33.7L861.73-33.7Q860.58-33.6 860.21-32.2 859.83-30.8 859.51-27.65 859.18-24.5 859.08-23.75L859.08-23.75ZM936.57 14.85L936.57 14.85Q933.72 14.85 931.67 13.13 929.62 11.4 929.62 8.1L929.62 8.1Q929.62 4.05 933.72 0.2L933.72 0.2Q930.82-0.05 929.07-1.7 927.32-3.35 927.32-6.35L927.32-6.35Q927.32-7.75 927.67-10.55 928.02-13.35 928.42-16.6 928.82-19.85 929.27-23.5L929.27-23.5Q930.82-24.05 932.12-24.05 933.42-24.05 934.07-23.95 934.72-23.85 935.32-23.2 935.92-22.55 935.92-21.35L935.92-21.35 934.27-8.6Q934.17-7.8 934.17-7.5L934.17-7.5Q934.17-4.55 936.87-4.55L936.87-4.55Q939.32-4.55 940.87-6.85L940.87-6.85Q941.02-8 941.62-13.48 942.22-18.95 942.62-22L942.62-22Q943.07-22.95 944.5-23.5 945.92-24.05 946.82-24.05L946.82-24.05Q948.42-24.05 949.72-23.65L949.72-23.65 947.37-5.2Q953.22-4.15 954.37 2.85L954.37 2.85Q954.17 3.8 952.47 5.85L952.47 5.85Q951.47-0.4 946.97-1.75L946.97-1.75 946.17 4.5Q945.62 9 943.32 11.93 941.02 14.85 936.57 14.85ZM933.52 7.15Q933.52 8.8 934.32 9.6 935.12 10.4 936.45 10.4 937.77 10.4 938.47 9.3 939.17 8.2 939.57 4.9L939.57 4.9 940.22-0.6Q933.67 2.8 933.52 7.15L933.52 7.15Z" opacity="1" transform="matrix(1,0,0,1,0,0)" fill="#81ffd9" class="undefined-text-1" data-fill-palette-color="secondary" id="text-1"></path></svg></g></svg></g></svg></g></svg></g><g transform="matrix(1,0,0,1,150.99641495642987,0)"><svg viewBox="0 0 93.52717008714023 90.68390943220237" height="90.68390943220237" width="93.52717008714023"><g><svg xmlns="http://www.w3.org/2000/svg" xmlns:xlink="http://www.w3.org/1999/xlink" xml:space="preserve" version="1.1" style="shape-rendering:geometricPrecision;text-rendering:geometricPrecision;image-rendering:optimizeQuality;" viewBox="5298.18017578125 1097.6146240234375 49412.640625 57798.20703125" x="8" y="0" fill-rule="evenodd" clip-rule="evenodd" height="90.68390943220237" width="77.52717008714023" class="icon-icon-0" data-fill-palette-color="accent" id="icon-0"><g fill="#81ffd9" data-fill-palette-color="accent"><path class="" d="M37133 10368c99-197 339-276 536-177 197 99 276 339 177 536-106 209-226 413-359 610 81-10 161-16 240-19 1113-43 2103 553 2940 1559 793 954 1451 2283 1940 3776 458 1396 772 2943 915 4463 364-2045 667-4385 598-6628-100-3245-979-6297-3598-7939-1242-778-2719-1382-4325-1811-1688-451-3513-706-5354-766-220-7-393-191-386-411 7-220 191-393 411-386 156 5 313 11 469 19-3-7-5-13-8-20-151-413-505-749-955-973-331-165-712-267-1103-295-391-27-790 20-1157 154-521 191-985 562-1278 1150l0 0c-6 11-12 22-18 33-116 187-361 245-548 130-242-150-508-267-791-348-272-77-560-118-860-118-531 0-1031 131-1468 362-454 240-843 589-1132 1011l0 0c-120 176-360 227-542 113-245-154-514-275-801-358-277-80-569-122-873-122-869 0-1655 352-2224 921-569 569-921 1356-921 2224 0 108 4 203 11 285 8 88 20 176 35 264 11 51 13 105 3 159-40 217-247 360-464 320-86-16-172-28-256-36-75-7-161-10-258-10-766 0-1460 311-1962 813-502 502-813 1196-813 1962 0 567 169 1094 460 1532 301 453 730 813 1236 1027l0 0c18 7 35 16 52 26 188 114 248 359 134 547-146 240-261 503-338 782-74 267-114 551-114 848 0 869 352 1655 921 2224 569 569 1356 921 2224 921 137 0 3400-482 5791-2129 1186-817 2142-1921 2337-3393 28-218 229-372 447-344 148 19 266 118 318 247 540 256 1127 460 1749 602 668 153 1378 235 2116 235 1548 0 2982-365 4165-988 1204-634 2147-1534 2682-2586z m-4500-7077c1298 129 2569 354 3771 675 1675 447 3224 1083 4541 1908 2896 1815 3866 5108 3973 8592 35 1148-23 2316-136 3456l0 0c727-54 1356 94 1872 383 462 260 829 633 1092 1079 258 439 412 946 451 1481 55 751-114 1560-538 2314-683 1217-1748 2160-2825 3115-1196 1060-2409 2136-3039 3577-28 64-71 118-123 157-422 849-881 1653-1368 2407-650 1005-1350 1923-2079 2743 846 3950 3976 5026 6136 5768 482 166 918 315 1299 486 3851 1730 6030 4662 7290 7841 1246 3144 1585 6521 1760 9199 14 220-153 410-373 423-220 14-410-153-423-373-171-2617-501-5912-1706-8956-1192-3008-3247-5779-6871-7407-328-147-758-295-1233-458-2237-769-5439-1870-6528-5825-1036 1060-2113 1925-3172 2566-1473 892-2934 1338-4400 1338-1466 0-2927-446-4400-1338-1059-641-2136-1505-3172-2566-981 3565-3679 4811-5841 5585 1472 2571 3865 4882 7066 6571 3075 1622 6892 2670 11352 2825 220 7 393 191 386 411-7 220-191 393-411 386-4590-160-8524-1241-11698-2916-3393-1790-5921-4259-7460-7010-444 153-845 292-1154 431-3624 1628-5679 4399-6871 7407-1206 3043-1536 6339-1706 8956-14 220-203 387-423 373-220-14-387-203-373-423 175-2678 514-6055 1760-9199 1260-3180 3438-6112 7290-7841 381-171 817-321 1299-486 2159-742 5290-1819 6136-5768-729-820-1429-1737-2079-2743-488-754-947-1558-1368-2407-52-40-95-93-123-157-630-1442-1843-2517-3039-3577-1077-955-2142-1899-2825-3115-424-754-593-1564-538-2314 39-535 193-1042 451-1481 262-446 630-819 1092-1079 305-171 649-293 1030-352-499-661-795-1484-795-2376 0-365 51-720 146-1061 58-208 133-409 223-602-484-278-896-665-1203-1127-376-566-594-1245-594-1973 0-987 400-1881 1047-2528 647-647 1541-1047 2528-1047 43 0 88 1 134 3-3-65-5-127-5-185 0-1089 442-2076 1156-2790 714-714 1700-1156 2790-1156 378 0 744 54 1091 154 238 69 468 159 686 270 330-398 737-730 1198-974 550-291 1177-456 1840-456 371 0 732 52 1075 149 219 62 431 143 634 241 389-585 924-971 1514-1187 477-174 987-236 1482-201 496 35 980 166 1403 376 627 312 1127 800 1352 1417 148 409 163 350 554 388z m-16446 15999c102 735 219 1441 341 2107 114 622 234 1220 349 1780 4-1308 147-2576 445-3658-397-20-778-99-1135-228z m1994 131c-379 1194-538 2690-502 4228 39 1634 300 3308 757 4710 559 1318 1213 2539 1930 3648 1677 2594 3697 4575 5646 5755 1346 815 2670 1222 3987 1222 1318 0 2641-407 3987-1222 1949-1180 3969-3161 5646-5755 1222-1890 2261-4105 2956-6570 480-2468 156-5799-742-8536-461-1404-1069-2642-1794-3513-680-818-1458-1304-2299-1272-426 16-880 166-1360 473-10 7-21 13-31 18-455 400-972 755-1541 1054-1296 683-2858 1082-4537 1082-794 0-1564-90-2294-257-588-135-1148-320-1672-550-382 1420-1366 2501-2549 3315-1929 1329-4422 1947-5590 2170z m-2859-570c-63-42-124-87-184-132-552-36-1022 72-1400 285-337 189-604 461-795 785-195 331-312 720-342 1134-44 602 94 1255 438 1868 620 1104 1632 2001 2656 2909 456 405 915 811 1347 1241-323-950-598-1940-814-2966-153-725-322-1542-485-2434-158-860-306-1769-421-2690z m28049 6754c-4 17-8 33-14 49-123 436-257 865-400 1286 433-430 891-836 1347-1241 1024-908 2036-1805 2656-2909 344-613 482-1266 438-1868-31-415-147-803-342-1134-191-324-458-596-795-785-384-216-862-325-1425-283-50 4-98-2-143-16-237 1957-613 3798-923 5270-117 554-250 1098-400 1630z m-26381 21760c-93-101-87-259 15-353 101-93 259-87 353 15 1390 1508 3121 2871 5190 3951 1884 983 4050 1734 6498 2147 136 23 228 151 205 287-23 136-151 228-287 205-2500-423-4716-1191-6646-2198-2124-1109-3901-2507-5327-4054z" fill="#81ffd9" fill-rule="nonzero" data-fill-palette-color="accent"></path></g></svg></g></svg></g><g><rect width="150.99641495642987" height="3.1916103161685125" y="86.49229911603386" x="244.5235850435701" fill="#81ffd9" data-fill-palette-color="accent"></rect><rect width="150.99641495642987" height="3.1916103161685125" y="86.49229911603386" x="0" fill="#81ffd9" data-fill-palette-color="accent"></rect><rect width="150.99641495642987" height="3.1916103161685125" y="80.10907848369683" x="244.5235850435701" fill="#81ffd9" data-fill-palette-color="accent"></rect><rect width="150.99641495642987" height="3.1916103161685125" y="80.10907848369683" x="0" fill="#81ffd9" data-fill-palette-color="accent"></rect></g></svg></g><defs></defs></svg><rect width="395.52" height="164.65678973324225" fill="none" stroke="none" visibility="hidden"></rect></g></svg></g></svg>